<?xml version="1.0" encoding="UTF-8" standalone="no"?>
<!DOCTYPE svg PUBLIC "-//W3C//DTD SVG 1.1//EN"
 "http://www.w3.org/Graphics/SVG/1.1/DTD/svg11.dtd">
<!-- Generated by graphviz version 2.26.3 (20100126.1600)
 -->
<!-- Title: files Pages: 1 -->
<svg width="710pt" height="120pt"
 viewBox="0.00 0.00 710.00 120.00" xmlns="http://www.w3.org/2000/svg" xmlns:xlink="http://www.w3.org/1999/xlink">
<g id="graph1" class="graph" transform="scale(1 1) rotate(0) translate(4 116)">
<title>files</title>
<polygon fill="white" stroke="white" points="-4,5 -4,-116 707,-116 707,5 -4,5"/>
<!-- files -->
<g id="node1" class="node"><title>files</title>
<ellipse fill="none" stroke="black" cx="344" cy="-93" rx="31.1127" ry="18.3848"/>
<text text-anchor="middle" x="344" y="-89.4" font-family="Times Roman,serif" font-size="14.00">files</text>
</g>
<!-- english.txt -->
<g id="node3" class="node"><title>english.txt</title>
<ellipse fill="none" stroke="black" cx="63" cy="-19" rx="63.1385" ry="18.3848"/>
<text text-anchor="middle" x="63" y="-15.4" font-family="Times Roman,serif" font-size="14.00">english.txt</text>
</g>
<!-- files&#45;&#45;english.txt -->
<g id="edge2" class="edge"><title>files&#45;&#45;english.txt</title>
<path fill="none" stroke="black" d="M315.602,-85.5335C275.397,-74.961 199.581,-55.0186 135,-38 126.874,-35.8587 118.233,-33.5798 109.862,-31.3714"/>
</g>
<!-- maths.txt -->
<g id="node5" class="node"><title>maths.txt</title>
<ellipse fill="none" stroke="black" cx="203" cy="-19" rx="58.8978" ry="18.3848"/>
<text text-anchor="middle" x="203" y="-15.4" font-family="Times Roman,serif" font-size="14.00">maths.txt</text>
</g>
<!-- files&#45;&#45;maths.txt -->
<g id="edge4" class="edge"><title>files&#45;&#45;maths.txt</title>
<path fill="none" stroke="black" d="M320.717,-80.7804C296.86,-68.2599 259.653,-48.7328 233.467,-34.99"/>
</g>
<!-- physics.txt -->
<g id="node7" class="node"><title>physics.txt</title>
<ellipse fill="none" stroke="black" cx="344" cy="-19" rx="63.8479" ry="18.3848"/>
<text text-anchor="middle" x="344" y="-15.4" font-family="Times Roman,serif" font-size="14.00">physics.txt</text>
</g>
<!-- files&#45;&#45;physics.txt -->
<g id="edge6" class="edge"><title>files&#45;&#45;physics.txt</title>
<path fill="none" stroke="black" d="M344,-74.3267C344,-63.1088 344,-48.8841 344,-37.6674"/>
</g>
<!-- marks.txt -->
<g id="node9" class="node"><title>marks.txt</title>
<ellipse fill="none" stroke="black" cx="484" cy="-19" rx="58.1882" ry="18.3848"/>
<text text-anchor="middle" x="484" y="-15.4" font-family="Times Roman,serif" font-size="14.00">marks.txt</text>
</g>
<!-- files&#45;&#45;marks.txt -->
<g id="edge8" class="edge"><title>files&#45;&#45;marks.txt</title>
<path fill="none" stroke="black" d="M367.433,-80.6141C391.174,-68.065 427.995,-48.6025 453.888,-34.9164"/>
</g>
<!-- students.txt -->
<g id="node11" class="node"><title>students.txt</title>
<ellipse fill="none" stroke="black" cx="631" cy="-19" rx="70.9184" ry="18.3848"/>
<text text-anchor="middle" x="631" y="-15.4" font-family="Times Roman,serif" font-size="14.00">students.txt</text>
</g>
<!-- files&#45;&#45;students.txt -->
<g id="edge10" class="edge"><title>files&#45;&#45;students.txt</title>
<path fill="none" stroke="black" d="M372.568,-85.6341C421.058,-73.1314 520.076,-47.6006 580.485,-32.0249"/>
</g>
</g>
</svg>
