<?xml version="1.0" encoding="UTF-8" standalone="no"?>
<!DOCTYPE svg PUBLIC "-//W3C//DTD SVG 1.1//EN"
 "http://www.w3.org/Graphics/SVG/1.1/DTD/svg11.dtd">
<!-- Generated by graphviz version 2.26.3 (20100126.1600)
 -->
<!-- Title: teacher_group Pages: 1 -->
<svg width="566pt" height="138pt"
 viewBox="0.00 0.00 566.00 138.00" xmlns="http://www.w3.org/2000/svg" xmlns:xlink="http://www.w3.org/1999/xlink">
<g id="graph1" class="graph" transform="scale(1 1) rotate(0) translate(4 134)">
<title>teacher_group</title>
<polygon fill="white" stroke="white" points="-4,5 -4,-134 563,-134 563,5 -4,5"/>
<!-- english_teacher -->
<g id="node1" class="node"><title>english_teacher</title>
<ellipse fill="none" stroke="black" cx="88" cy="-111" rx="87.889" ry="18.3848"/>
<text text-anchor="middle" x="88" y="-107.4" font-family="Times Roman,serif" font-size="14.00">english_teacher</text>
</g>
<!-- teacher group -->
<g id="node3" class="node"><title>teacher group</title>
<ellipse fill="none" stroke="black" cx="278" cy="-19" rx="79.9031" ry="18.3848"/>
<text text-anchor="middle" x="278" y="-15.4" font-family="Times Roman,serif" font-size="14.00">teacher group</text>
</g>
<!-- english_teacher&#45;&gt;teacher group -->
<g id="edge2" class="edge"><title>english_teacher&#45;&gt;teacher group</title>
<path fill="none" stroke="black" d="M123.292,-93.9111C154.585,-78.7591 200.412,-56.569 234.069,-40.2717"/>
<polygon fill="black" stroke="black" points="235.743,-43.3503 243.218,-35.842 232.692,-37.05 235.743,-43.3503"/>
</g>
<!-- maths_teacher -->
<g id="node4" class="node"><title>maths_teacher</title>
<ellipse fill="none" stroke="black" cx="278" cy="-111" rx="84.1457" ry="18.3848"/>
<text text-anchor="middle" x="278" y="-107.4" font-family="Times Roman,serif" font-size="14.00">maths_teacher</text>
</g>
<!-- maths_teacher&#45;&gt;teacher group -->
<g id="edge4" class="edge"><title>maths_teacher&#45;&gt;teacher group</title>
<path fill="none" stroke="black" d="M278,-92.3824C278,-79.5383 278,-62.2161 278,-47.6269"/>
<polygon fill="black" stroke="black" points="281.5,-47.5898 278,-37.5899 274.5,-47.5899 281.5,-47.5898"/>
<text text-anchor="middle" x="317" y="-61.4" font-family="Times Roman,serif" font-size="14.00">Belongs to </text>
</g>
<!-- physics_teacher -->
<g id="node6" class="node"><title>physics_teacher</title>
<ellipse fill="none" stroke="black" cx="469" cy="-111" rx="89.0955" ry="18.3848"/>
<text text-anchor="middle" x="469" y="-107.4" font-family="Times Roman,serif" font-size="14.00">physics_teacher</text>
</g>
<!-- physics_teacher&#45;&gt;teacher group -->
<g id="edge6" class="edge"><title>physics_teacher&#45;&gt;teacher group</title>
<path fill="none" stroke="black" d="M435.792,-93.7726C414.293,-82.7368 385.63,-68.2414 360,-56 348.546,-50.5292 336.1,-44.8029 324.446,-39.5347"/>
<polygon fill="black" stroke="black" points="325.859,-36.3327 315.304,-35.4215 322.987,-42.7164 325.859,-36.3327"/>
</g>
</g>
</svg>
