<?xml version="1.0" encoding="UTF-8" standalone="no"?>
<!DOCTYPE svg PUBLIC "-//W3C//DTD SVG 1.1//EN"
 "http://www.w3.org/Graphics/SVG/1.1/DTD/svg11.dtd">
<!-- Generated by graphviz version 2.26.3 (20100126.1600)
 -->
<!-- Title: files Pages: 1 -->
<svg width="703pt" height="268pt"
 viewBox="0.00 0.00 703.00 268.00" xmlns="http://www.w3.org/2000/svg" xmlns:xlink="http://www.w3.org/1999/xlink">
<g id="graph1" class="graph" transform="scale(1 1) rotate(0) translate(4 264)">
<title>files</title>
<polygon fill="white" stroke="white" points="-4,5 -4,-264 700,-264 700,5 -4,5"/>
<!-- aditi -->
<g id="node1" class="node"><title>aditi</title>
<ellipse fill="none" stroke="black" cx="413" cy="-241" rx="33.234" ry="18.3848"/>
<text text-anchor="middle" x="413" y="-237.4" font-family="Times Roman,serif" font-size="14.00">aditi</text>
</g>
<!-- Desktop -->
<g id="node3" class="node"><title>Desktop</title>
<ellipse fill="none" stroke="black" cx="125" cy="-167" rx="51.8276" ry="18.3848"/>
<text text-anchor="middle" x="125" y="-163.4" font-family="Times Roman,serif" font-size="14.00">Desktop</text>
</g>
<!-- aditi&#45;&#45;Desktop -->
<g id="edge2" class="edge"><title>aditi&#45;&#45;Desktop</title>
<path fill="none" stroke="black" d="M381.996,-234.152C338.138,-224.315 255.567,-205.241 186,-186 178.73,-183.989 171.019,-181.706 163.613,-179.437"/>
</g>
<!-- Documents -->
<g id="node5" class="node"><title>Documents</title>
<ellipse fill="none" stroke="black" cx="262" cy="-167" rx="67.1751" ry="18.3848"/>
<text text-anchor="middle" x="262" y="-163.4" font-family="Times Roman,serif" font-size="14.00">Documents</text>
</g>
<!-- aditi&#45;&#45;Documents -->
<g id="edge4" class="edge"><title>aditi&#45;&#45;Documents</title>
<path fill="none" stroke="black" d="M388.065,-228.78C362.601,-216.301 322.932,-196.861 294.904,-183.125"/>
</g>
<!-- Downloads -->
<g id="node7" class="node"><title>Downloads</title>
<ellipse fill="none" stroke="black" cx="413" cy="-167" rx="65.7609" ry="18.3848"/>
<text text-anchor="middle" x="413" y="-163.4" font-family="Times Roman,serif" font-size="14.00">Downloads</text>
</g>
<!-- aditi&#45;&#45;Downloads -->
<g id="edge6" class="edge"><title>aditi&#45;&#45;Downloads</title>
<path fill="none" stroke="black" d="M413,-222.327C413,-211.109 413,-196.884 413,-185.667"/>
</g>
<!-- Music -->
<g id="node9" class="node"><title>Music</title>
<ellipse fill="none" stroke="black" cx="536" cy="-167" rx="38.8909" ry="18.3848"/>
<text text-anchor="middle" x="536" y="-163.4" font-family="Times Roman,serif" font-size="14.00">Music</text>
</g>
<!-- aditi&#45;&#45;Music -->
<g id="edge8" class="edge"><title>aditi&#45;&#45;Music</title>
<path fill="none" stroke="black" d="M435.56,-227.427C457.06,-214.493 489.345,-195.069 511.474,-181.756"/>
</g>
<!-- Pictures -->
<g id="node11" class="node"><title>Pictures</title>
<ellipse fill="none" stroke="black" cx="644" cy="-167" rx="50.9117" ry="18.3848"/>
<text text-anchor="middle" x="644" y="-163.4" font-family="Times Roman,serif" font-size="14.00">Pictures</text>
</g>
<!-- aditi&#45;&#45;Pictures -->
<g id="edge10" class="edge"><title>aditi&#45;&#45;Pictures</title>
<path fill="none" stroke="black" d="M441.789,-231.777C483.152,-218.527 559.48,-194.076 605.606,-179.299"/>
</g>
<!-- example.txt -->
<g id="node13" class="node"><title>example.txt</title>
<ellipse fill="none" stroke="black" cx="70" cy="-93" rx="70.0036" ry="18.3848"/>
<text text-anchor="middle" x="70" y="-89.4" font-family="Times Roman,serif" font-size="14.00">example.txt</text>
</g>
<!-- Documents&#45;&#45;example.txt -->
<g id="edge12" class="edge"><title>Documents&#45;&#45;example.txt</title>
<path fill="none" stroke="black" d="M222.683,-151.846C189.66,-139.119 142.695,-121.018 109.594,-108.26"/>
</g>
<!-- allaboutconsole.txt -->
<g id="node15" class="node"><title>allaboutconsole.txt</title>
<ellipse fill="none" stroke="black" cx="262" cy="-93" rx="104.151" ry="18.3848"/>
<text text-anchor="middle" x="262" y="-89.4" font-family="Times Roman,serif" font-size="14.00">allaboutconsole.txt</text>
</g>
<!-- Documents&#45;&#45;allaboutconsole.txt -->
<g id="edge14" class="edge"><title>Documents&#45;&#45;allaboutconsole.txt</title>
<path fill="none" stroke="black" d="M262,-148.327C262,-137.109 262,-122.884 262,-111.667"/>
</g>
<!-- my_project -->
<g id="node17" class="node"><title>my_project</title>
<ellipse fill="none" stroke="black" cx="449" cy="-93" rx="65.0538" ry="18.3848"/>
<text text-anchor="middle" x="449" y="-89.4" font-family="Times Roman,serif" font-size="14.00">my_project</text>
</g>
<!-- Documents&#45;&#45;my_project -->
<g id="edge16" class="edge"><title>Documents&#45;&#45;my_project</title>
<path fill="none" stroke="black" d="M300.747,-151.667C333.054,-138.882 378.829,-120.768 410.943,-108.06"/>
</g>
<!-- vlabs_ui -->
<g id="node19" class="node"><title>vlabs_ui</title>
<ellipse fill="none" stroke="black" cx="449" cy="-19" rx="50.9117" ry="18.3848"/>
<text text-anchor="middle" x="449" y="-15.4" font-family="Times Roman,serif" font-size="14.00">vlabs_ui</text>
</g>
<!-- my_project&#45;&#45;vlabs_ui -->
<g id="edge18" class="edge"><title>my_project&#45;&#45;vlabs_ui</title>
<path fill="none" stroke="black" d="M449,-74.3267C449,-63.1088 449,-48.8841 449,-37.6674"/>
</g>
</g>
</svg>
