<?xml version="1.0" encoding="UTF-8" standalone="no"?>
<!DOCTYPE svg PUBLIC "-//W3C//DTD SVG 1.1//EN"
 "http://www.w3.org/Graphics/SVG/1.1/DTD/svg11.dtd">
<!-- Generated by graphviz version 2.26.3 (20100126.1600)
 -->
<!-- Title: teachers Pages: 1 -->
<svg width="688pt" height="120pt"
 viewBox="0.00 0.00 688.00 120.00" xmlns="http://www.w3.org/2000/svg" xmlns:xlink="http://www.w3.org/1999/xlink">
<g id="graph1" class="graph" transform="scale(1 1) rotate(0) translate(4 116)">
<title>teachers</title>
<polygon fill="white" stroke="white" points="-4,5 -4,-116 685,-116 685,5 -4,5"/>
<!-- teachers -->
<g id="node1" class="node"><title>teachers</title>
<ellipse fill="none" stroke="black" cx="373" cy="-93" rx="53.2379" ry="18.3848"/>
<text text-anchor="middle" x="373" y="-89.4" font-family="Times Roman,serif" font-size="14.00">teachers</text>
</g>
<!-- english_teacher -->
<g id="node3" class="node"><title>english_teacher</title>
<ellipse fill="none" stroke="black" cx="88" cy="-19" rx="87.889" ry="18.3848"/>
<text text-anchor="middle" x="88" y="-15.4" font-family="Times Roman,serif" font-size="14.00">english_teacher</text>
</g>
<!-- teachers&#45;&#45;english_teacher -->
<g id="edge2" class="edge"><title>teachers&#45;&#45;english_teacher</title>
<path fill="none" stroke="black" d="M330.333,-81.9215C280.564,-68.9991 198.146,-47.5994 143.456,-33.3991"/>
</g>
<!-- maths_teacher -->
<g id="node5" class="node"><title>maths_teacher</title>
<ellipse fill="none" stroke="black" cx="278" cy="-19" rx="84.1457" ry="18.3848"/>
<text text-anchor="middle" x="278" y="-15.4" font-family="Times Roman,serif" font-size="14.00">maths_teacher</text>
</g>
<!-- teachers&#45;&#45;maths_teacher -->
<g id="edge4" class="edge"><title>teachers&#45;&#45;maths_teacher</title>
<path fill="none" stroke="black" d="M350.966,-75.8369C335.948,-64.1382 316.107,-48.6831 300.906,-36.8426"/>
</g>
<!-- physics_teacher -->
<g id="node7" class="node"><title>physics_teacher</title>
<ellipse fill="none" stroke="black" cx="469" cy="-19" rx="89.0955" ry="18.3848"/>
<text text-anchor="middle" x="469" y="-15.4" font-family="Times Roman,serif" font-size="14.00">physics_teacher</text>
</g>
<!-- teachers&#45;&#45;physics_teacher -->
<g id="edge6" class="edge"><title>teachers&#45;&#45;physics_teacher</title>
<path fill="none" stroke="black" d="M395.266,-75.8369C410.332,-64.2236 430.2,-48.9085 445.516,-37.1024"/>
</g>
<!-- principal -->
<g id="node9" class="node"><title>principal</title>
<ellipse fill="none" stroke="black" cx="628" cy="-19" rx="51.8276" ry="18.3848"/>
<text text-anchor="middle" x="628" y="-15.4" font-family="Times Roman,serif" font-size="14.00">principal</text>
</g>
<!-- teachers&#45;&#45;principal -->
<g id="edge8" class="edge"><title>teachers&#45;&#45;principal</title>
<path fill="none" stroke="black" d="M414.717,-81.5067C454.065,-70.5873 514.654,-53.5696 567,-38 574.123,-35.8813 581.696,-33.5701 588.996,-31.3124"/>
</g>
</g>
</svg>
