<?xml version="1.0" encoding="UTF-8" standalone="no"?>
<!DOCTYPE svg PUBLIC "-//W3C//DTD SVG 1.1//EN"
 "http://www.w3.org/Graphics/SVG/1.1/DTD/svg11.dtd">
<!-- Generated by graphviz version 2.26.3 (20100126.1600)
 -->
<!-- Title: students Pages: 1 -->
<svg width="406pt" height="120pt"
 viewBox="0.00 0.00 406.00 120.00" xmlns="http://www.w3.org/2000/svg" xmlns:xlink="http://www.w3.org/1999/xlink">
<g id="graph1" class="graph" transform="scale(1 1) rotate(0) translate(4 116)">
<title>students</title>
<polygon fill="white" stroke="white" points="-4,5 -4,-116 403,-116 403,5 -4,5"/>
<!-- students -->
<g id="node1" class="node"><title>students</title>
<ellipse fill="none" stroke="black" cx="201" cy="-93" rx="53.9477" ry="18.3848"/>
<text text-anchor="middle" x="201" y="-89.4" font-family="Times Roman,serif" font-size="14.00">students</text>
</g>
<!-- student_a -->
<g id="node3" class="node"><title>student_a</title>
<ellipse fill="none" stroke="black" cx="61" cy="-19" rx="60.8112" ry="18.3848"/>
<text text-anchor="middle" x="61" y="-15.4" font-family="Times Roman,serif" font-size="14.00">student_a</text>
</g>
<!-- students&#45;&#45;student_a -->
<g id="edge2" class="edge"><title>students&#45;&#45;student_a</title>
<path fill="none" stroke="black" d="M171.31,-77.3065C147.872,-64.9182 115.289,-47.6957 91.6154,-35.1824"/>
</g>
<!-- student_b -->
<g id="node5" class="node"><title>student_b</title>
<ellipse fill="none" stroke="black" cx="201" cy="-19" rx="60.8112" ry="18.3848"/>
<text text-anchor="middle" x="201" y="-15.4" font-family="Times Roman,serif" font-size="14.00">student_b</text>
</g>
<!-- students&#45;&#45;student_b -->
<g id="edge4" class="edge"><title>students&#45;&#45;student_b</title>
<path fill="none" stroke="black" d="M201,-74.3267C201,-63.1088 201,-48.8841 201,-37.6674"/>
</g>
<!-- student_c -->
<g id="node7" class="node"><title>student_c</title>
<ellipse fill="none" stroke="black" cx="339" cy="-19" rx="58.8978" ry="18.3848"/>
<text text-anchor="middle" x="339" y="-15.4" font-family="Times Roman,serif" font-size="14.00">student_c</text>
</g>
<!-- students&#45;&#45;student_c -->
<g id="edge6" class="edge"><title>students&#45;&#45;student_c</title>
<path fill="none" stroke="black" d="M230.266,-77.3065C253.369,-64.9182 285.486,-47.6957 308.822,-35.1824"/>
</g>
</g>
</svg>
