<?xml version="1.0" encoding="UTF-8" standalone="no"?>
<!DOCTYPE svg PUBLIC "-//W3C//DTD SVG 1.1//EN"
 "http://www.w3.org/Graphics/SVG/1.1/DTD/svg11.dtd">
<!-- Generated by graphviz version 2.26.3 (20100126.1600)
 -->
<!-- Title: container Pages: 1 -->
<svg width="568pt" height="138pt"
 viewBox="0.00 0.00 568.00 138.00" xmlns="http://www.w3.org/2000/svg" xmlns:xlink="http://www.w3.org/1999/xlink">
<g id="graph1" class="graph" transform="scale(1 1) rotate(0) translate(4 134)">
<title>container</title>
<polygon fill="white" stroke="white" points="-4,5 -4,-134 565,-134 565,5 -4,5"/>
<!-- english_teacher -->
<g id="node1" class="node"><title>english_teacher</title>
<ellipse fill="none" stroke="black" cx="88" cy="-111" rx="87.889" ry="18.3848"/>
<text text-anchor="middle" x="88" y="-107.4" font-family="Times Roman,serif" font-size="14.00">english_teacher</text>
</g>
<!-- english.txt -->
<g id="node4" class="node"><title>english.txt</title>
<ellipse fill="none" stroke="black" cx="88" cy="-19" rx="63.1385" ry="18.3848"/>
<text text-anchor="middle" x="88" y="-15.4" font-family="Times Roman,serif" font-size="14.00">english.txt</text>
</g>
<!-- english_teacher&#45;&gt;english.txt -->
<g id="edge3" class="edge"><title>english_teacher&#45;&gt;english.txt</title>
<path fill="none" stroke="black" d="M88,-92.3824C88,-79.5383 88,-62.2161 88,-47.6269"/>
<polygon fill="black" stroke="black" points="91.5001,-47.5898 88,-37.5899 84.5001,-47.5899 91.5001,-47.5898"/>
<text text-anchor="middle" x="133.5" y="-61.4" font-family="Times Roman,serif" font-size="14.00">Needs access</text>
</g>
<!-- maths_teacher -->
<g id="node5" class="node"><title>maths_teacher</title>
<ellipse fill="none" stroke="black" cx="278" cy="-111" rx="84.1457" ry="18.3848"/>
<text text-anchor="middle" x="278" y="-107.4" font-family="Times Roman,serif" font-size="14.00">maths_teacher</text>
</g>
<!-- maths.txt -->
<g id="node8" class="node"><title>maths.txt</title>
<ellipse fill="none" stroke="black" cx="278" cy="-19" rx="58.8978" ry="18.3848"/>
<text text-anchor="middle" x="278" y="-15.4" font-family="Times Roman,serif" font-size="14.00">maths.txt</text>
</g>
<!-- maths_teacher&#45;&gt;maths.txt -->
<g id="edge6" class="edge"><title>maths_teacher&#45;&gt;maths.txt</title>
<path fill="none" stroke="black" d="M278,-92.3824C278,-79.5383 278,-62.2161 278,-47.6269"/>
<polygon fill="black" stroke="black" points="281.5,-47.5898 278,-37.5899 274.5,-47.5899 281.5,-47.5898"/>
<text text-anchor="middle" x="323.5" y="-61.4" font-family="Times Roman,serif" font-size="14.00">Needs access</text>
</g>
<!-- physics_teacher -->
<g id="node9" class="node"><title>physics_teacher</title>
<ellipse fill="none" stroke="black" cx="469" cy="-111" rx="89.0955" ry="18.3848"/>
<text text-anchor="middle" x="469" y="-107.4" font-family="Times Roman,serif" font-size="14.00">physics_teacher</text>
</g>
<!-- physics.txt -->
<g id="node12" class="node"><title>physics.txt</title>
<ellipse fill="none" stroke="black" cx="469" cy="-19" rx="63.8479" ry="18.3848"/>
<text text-anchor="middle" x="469" y="-15.4" font-family="Times Roman,serif" font-size="14.00">physics.txt</text>
</g>
<!-- physics_teacher&#45;&gt;physics.txt -->
<g id="edge9" class="edge"><title>physics_teacher&#45;&gt;physics.txt</title>
<path fill="none" stroke="black" d="M469,-92.3824C469,-79.5383 469,-62.2161 469,-47.6269"/>
<polygon fill="black" stroke="black" points="472.5,-47.5898 469,-37.5899 465.5,-47.5899 472.5,-47.5898"/>
<text text-anchor="middle" x="514.5" y="-61.4" font-family="Times Roman,serif" font-size="14.00">Needs access</text>
</g>
</g>
</svg>
