<?xml version="1.0" encoding="UTF-8" standalone="no"?>
<!DOCTYPE svg PUBLIC "-//W3C//DTD SVG 1.1//EN"
 "http://www.w3.org/Graphics/SVG/1.1/DTD/svg11.dtd">
<!-- Generated by graphviz version 2.26.3 (20100126.1600)
 -->
<!-- Title: teacher_marks Pages: 1 -->
<svg width="566pt" height="138pt"
 viewBox="0.00 0.00 566.00 138.00" xmlns="http://www.w3.org/2000/svg" xmlns:xlink="http://www.w3.org/1999/xlink">
<g id="graph1" class="graph" transform="scale(1 1) rotate(0) translate(4 134)">
<title>teacher_marks</title>
<polygon fill="white" stroke="white" points="-4,5 -4,-134 563,-134 563,5 -4,5"/>
<!-- english_teacher -->
<g id="node1" class="node"><title>english_teacher</title>
<ellipse fill="none" stroke="black" cx="88" cy="-111" rx="87.889" ry="18.3848"/>
<text text-anchor="middle" x="88" y="-107.4" font-family="Times Roman,serif" font-size="14.00">english_teacher</text>
</g>
<!-- marks.txt -->
<g id="node3" class="node"><title>marks.txt</title>
<ellipse fill="none" stroke="black" cx="278" cy="-19" rx="58.1882" ry="18.3848"/>
<text text-anchor="middle" x="278" y="-15.4" font-family="Times Roman,serif" font-size="14.00">marks.txt</text>
</g>
<!-- english_teacher&#45;&gt;marks.txt -->
<g id="edge2" class="edge"><title>english_teacher&#45;&gt;marks.txt</title>
<path fill="none" stroke="black" d="M123.292,-93.9111C155.467,-78.3316 203.009,-55.3113 236.888,-38.9067"/>
<polygon fill="black" stroke="black" points="238.583,-41.9751 246.058,-34.4668 235.532,-35.6748 238.583,-41.9751"/>
</g>
<!-- maths_teacher -->
<g id="node4" class="node"><title>maths_teacher</title>
<ellipse fill="none" stroke="black" cx="278" cy="-111" rx="84.1457" ry="18.3848"/>
<text text-anchor="middle" x="278" y="-107.4" font-family="Times Roman,serif" font-size="14.00">maths_teacher</text>
</g>
<!-- maths_teacher&#45;&gt;marks.txt -->
<g id="edge4" class="edge"><title>maths_teacher&#45;&gt;marks.txt</title>
<path fill="none" stroke="black" d="M278,-92.3824C278,-79.5383 278,-62.2161 278,-47.6269"/>
<polygon fill="black" stroke="black" points="281.5,-47.5898 278,-37.5899 274.5,-47.5899 281.5,-47.5898"/>
<text text-anchor="middle" x="323.5" y="-61.4" font-family="Times Roman,serif" font-size="14.00">Needs access</text>
</g>
<!-- physics_teacher -->
<g id="node6" class="node"><title>physics_teacher</title>
<ellipse fill="none" stroke="black" cx="469" cy="-111" rx="89.0955" ry="18.3848"/>
<text text-anchor="middle" x="469" y="-107.4" font-family="Times Roman,serif" font-size="14.00">physics_teacher</text>
</g>
<!-- physics_teacher&#45;&gt;marks.txt -->
<g id="edge6" class="edge"><title>physics_teacher&#45;&gt;marks.txt</title>
<path fill="none" stroke="black" d="M440.614,-93.2477C421.814,-81.8652 396.396,-67.1817 373,-56 358.328,-48.9878 341.951,-42.2432 326.983,-36.4772"/>
<polygon fill="black" stroke="black" points="327.973,-33.1097 317.382,-32.8366 325.491,-39.6549 327.973,-33.1097"/>
</g>
</g>
</svg>
